# File created by Blade
# Date/Time:  Tue Apr 07 20:29:34 2015
# Frame Rate: 120.000 fps
#------------------------------------------------------
:FULLY-SPECIFIED
:DEGREES
1378
root 4.123703 33.575687 -4.424495 -14.246602 -0.114666 -25.439519
Spine 13.848919 -1.380148 19.929933
Head 10.670039 -7.473650 5.202976
LeftShoulder -16.584989 44.011081 11.016825
LeftArm 51.276590 8.029333 -75.768928
LeftForeArm -2.743288 -0.000000 18.169785
LeftHand 8.143202 0.000000 -3.254250
LeftHandThumb1 -26.253704 0.000000 33.147579
RightShoulder -0.889973 -5.408990 -8.225158
RightArm 19.789466 -18.763458 65.357184
RightForeArm 15.167995 -0.000000 23.081206
RightHand 10.250432 0.000000 10.689895
RightHandThumb1 -24.326973 -0.000000 -32.862282
LeftUpLeg 4.905662 0.475150 21.214684
LeftLeg 21.445716 -0.000000 -0.000000
LeftFoot -15.205246 2.971580 -23.129030
LeftToeBase -0.691543 -0.000000 0.000000
RightUpLeg -93.240341 -4.003753 15.636566
RightLeg 84.065328 -0.000000 -0.000000
RightFoot 43.380958 -2.292459 -0.571625
RightToeBase 37.693005 -0.000000 -0.000000
1379
root 4.115261 33.589393 -4.419606 -14.370092 0.229618 -25.402004
Spine 13.894571 -1.632678 19.617085
Head 10.640106 -7.637934 5.499559
LeftShoulder -16.462034 43.905784 11.133857
LeftArm 51.306249 8.107732 -75.793272
LeftForeArm -2.789227 -0.000000 18.604479
LeftHand 8.202995 -0.000000 -3.311542
LeftHandThumb1 -26.253704 0.000000 33.147579
RightShoulder -0.992406 -5.486976 -8.175974
RightArm 19.726169 -18.822274 65.326547
RightForeArm 14.984755 -0.000000 23.082201
RightHand 10.329895 -0.000000 10.507492
RightHandThumb1 -24.326973 -0.000000 -32.862282
LeftUpLeg 4.876503 0.615845 21.252933
LeftLeg 21.422572 -0.000000 -0.000000
LeftFoot -15.082762 2.469587 -23.816006
LeftToeBase 0.091444 -0.000000 -0.000000
RightUpLeg -93.471367 -4.331976 15.413292
RightLeg 81.809706 -0.000000 -0.000000
RightFoot 43.398180 -2.473888 -0.545560
RightToeBase 38.135141 -0.000000 -0.000000
1380
root 4.101804 33.603653 -4.417049 -14.480946 0.554591 -25.350242
Spine 13.948051 -1.894861 19.258476
Head 10.600975 -7.778803 5.826996
LeftShoulder -16.378469 43.809175 11.211031
LeftArm 51.338338 8.161480 -75.793704
LeftForeArm -2.801445 -0.000000 19.003202
LeftHand 8.221296 -0.000000 -3.275275
LeftHandThumb1 -26.253704 0.000000 33.147579
RightShoulder -1.077143 -5.514634 -8.106748
RightArm 19.670524 -18.919683 65.320004
RightForeArm 14.916907 -0.000000 23.004320
RightHand 10.322679 -0.000000 10.347103
RightHandThumb1 -24.326973 -0.000000 -32.862282
LeftUpLeg 4.853811 0.945425 21.330674
LeftLeg 21.364481 -0.000000 -0.000000
LeftFoot -14.867259 1.884697 -24.368353
LeftToeBase 0.776969 -0.000000 -0.000000
RightUpLeg -93.680107 -4.620144 15.177543
RightLeg 79.590601 -0.000000 -0.000000
RightFoot 43.339060 -2.830647 -0.333026
RightToeBase 38.272414 -0.000000 -0.000000
1381
root 4.076914 33.615281 -4.424204 -14.505033 0.987331 -25.362113
Spine 13.899113 -2.239144 18.898851
Head 10.538857 -7.929089 6.216359
LeftShoulder -16.326269 43.762420 11.290467
LeftArm 51.443686 8.206531 -75.765055
LeftForeArm -2.816763 0.000000 19.353831
LeftHand 8.288172 -0.000000 -3.258754
LeftHandThumb1 -26.253704 0.000000 33.147579
RightShoulder -1.108751 -5.471047 -8.044162
RightArm 19.466721 -18.864774 65.478262
RightForeArm 14.786520 -0.000000 22.930419
RightHand 10.317017 0.000000 10.137048
RightHandThumb1 -24.326973 -0.000000 -32.862282
LeftUpLeg 4.619719 1.180934 21.466137
LeftLeg 21.437376 -0.000000 -0.000000
LeftFoot -14.669636 1.212186 -25.050301
LeftToeBase 1.456851 -0.000000 -0.000000
RightUpLeg -93.973979 -4.970806 14.972045
RightLeg 77.435528 -0.000000 -0.000000
RightFoot 43.147276 -3.358439 -0.024149
RightToeBase 38.628906 -0.000000 -0.000000
1382
root 4.068737 33.621143 -4.419470 -14.521586 1.516926 -25.255511
Spine 13.777656 -2.655286 18.423463
Head 10.537912 -8.051952 6.549408
LeftShoulder -16.321433 43.765024 11.295147
LeftArm 51.550427 8.262676 -75.720257
LeftForeArm -2.802711 -0.000000 19.686204
LeftHand 8.295600 -0.000000 -3.236931
LeftHandThumb1 -26.253704 0.000000 33.147579
RightShoulder -1.140787 -5.532022 -8.032656
RightArm 19.295255 -18.754178 65.681790
RightForeArm 14.839752 -0.000000 22.827583
RightHand 10.345107 0.000000 10.041354
RightHandThumb1 -24.326973 -0.000000 -32.862282
LeftUpLeg 4.398331 1.270766 21.397699
LeftLeg 21.461446 -0.000000 -0.000000
LeftFoot -14.515721 0.690459 -25.635998
LeftToeBase 2.149617 -0.000000 -0.000000
RightUpLeg -94.337083 -5.460889 14.735486
RightLeg 75.506639 -0.000000 -0.000000
RightFoot 42.891282 -3.853356 -0.017951
RightToeBase 38.722267 -0.000000 -0.000000
1383
root 4.061432 33.630209 -4.409602 -14.694450 1.884478 -25.156271
Spine 13.887330 -2.967254 17.996673
Head 10.498809 -8.157643 6.879269
LeftShoulder -16.275075 43.740096 11.323960
LeftArm 51.673984 8.344215 -75.646901
LeftForeArm -2.846913 -0.000000 19.908775
LeftHand 8.453001 -0.000000 -3.136177
LeftHandThumb1 -26.253704 0.000000 33.147579
RightShoulder -1.157731 -5.577648 -8.045829
RightArm 19.114644 -18.562490 65.922247
RightForeArm 14.969727 -0.000000 22.701967
RightHand 10.349135 -0.000000 10.092056
RightHandThumb1 -24.326973 -0.000000 -32.862282
LeftUpLeg 4.401801 1.458945 21.383231
LeftLeg 21.477914 -0.000000 -0.000000
LeftFoot -14.317861 0.198915 -26.165187
LeftToeBase 2.683097 -0.000000 -0.000000
RightUpLeg -94.502089 -5.854107 14.607682
RightLeg 73.673071 -0.000000 -0.000000
RightFoot 42.730462 -4.453625 -0.024791
RightToeBase 38.819608 -0.000000 -0.000000
1384
root 4.045254 33.640190 -4.401801 -14.888809 2.200792 -25.040112
Spine 14.060534 -3.216684 17.534880
Head 10.429275 -8.275166 7.211989
LeftShoulder -16.255764 43.742208 11.338883
LeftArm 51.878591 8.415096 -75.514830
LeftForeArm -2.925099 -0.000000 20.068887
LeftHand 8.496426 -0.000000 -3.050105
LeftHandThumb1 -26.253704 0.000000 33.147579
RightShoulder -1.176830 -5.661929 -8.062260
RightArm 18.949091 -18.339882 66.201346
RightForeArm 15.139694 -0.000000 22.610289
RightHand 10.380566 0.000000 9.876815
RightHandThumb1 -24.326973 -0.000000 -32.862282
LeftUpLeg 4.456599 1.703180 21.377943
LeftLeg 21.465962 -0.000000 -0.000000
LeftFoot -14.043562 -0.277753 -26.588796
LeftToeBase 3.111075 -0.000000 -0.000000
RightUpLeg -94.615569 -6.161955 14.489912
RightLeg 72.000139 -0.000000 -0.000000
RightFoot 42.484102 -5.099031 -0.057190
RightToeBase 39.117257 -0.000000 -0.000000
